<svg width="32" height="32" xmlns="http://www.w3.org/2000/svg" viewBox="0 0 96 96">
  <g id="SvgjsG1291" featurekey="HKaMnE-0" transform="matrix(1.1953339493925197,0,0,1.1953339493925197,-15.325789626477839,-8.456700117354053)" fill="#0d7377">
    <path xmlns="http://www.w3.org/2000/svg" d="M47.743,91.205l0.258,0.094l0.258-0.094c35.183-12.865,38.155-34.771,38.27-35.786V13.685l-6.317-3.009l-0.353,0.23  c-2.542,1.661-5.564,2.502-8.981,2.502c-10.842,0-22.314-8.426-22.429-8.511l-0.447-0.332l-0.447,0.332  c-0.114,0.085-11.577,8.51-22.43,8.511c0,0-0.001,0-0.002,0c-3.416,0-6.438-0.842-8.98-2.502l-0.353-0.23l-6.315,3.009l0.005,41.822  C9.588,56.433,12.561,78.339,47.743,91.205z M57.204,35.549l-0.53-0.53l0.53-0.53l0.53-0.53L71.776,48L57.734,62.042l-0.53-0.53  l-0.53-0.53l0.53-0.53L69.655,48L57.204,35.549z M51.454,34.269l1.434,0.442l-8.342,27.02l-1.434-0.442L51.454,34.269z   M38.268,33.958l0.53,0.53l0.53,0.53l-0.53,0.53L26.345,48l12.453,12.451l0.53,0.53l-0.53,0.53l-0.53,0.53L24.224,48L38.268,33.958z  "></path>
  </g>
</svg>
