<svg
  xmlns="http://www.w3.org/2000/svg"
  width="400"
  height="120"
  viewBox="-4 -3 374 107"
  className="looka-1j8o68f"
>
  <!-- Shape part of the logo -->
  <g
    transform="matrix(1.2,0,0,1.2,-15,-8)"
    fill="#0d7377"
  >
    <path d="M47.743,91.205l0.258,0.094l0.258-0.094c35.183-12.865,38.155-34.771,38.27-35.786V13.685l-6.317-3.009l-0.353,0.23
      c-2.542,1.661-5.564,2.502-8.981,2.502c-10.842,0-22.314-8.426-22.429-8.511l-0.447-0.332l-0.447,0.332
      c-0.114,0.085-11.577,8.51-22.43,8.511c0,0-0.001,0-0.002,0c-3.416,0-6.438-0.842-8.98-2.502l-0.353-0.23l-6.315,3.009l0.005,41.822
      C9.588,56.433,12.561,78.339,47.743,91.205z M57.204,35.549l-0.53-0.53l0.53-0.53l0.53-0.53L71.776,48L57.734,62.042l-0.53-0.53
      l-0.53-0.53l0.53-0.53L69.655,48L57.204,35.549z M51.454,34.269l1.434,0.442l-8.342,27.02l-1.434-0.442L51.454,34.269z
      M38.268,33.958l0.53,0.53l0.53,0.53l-0.53,0.53L26.345,48l12.453,12.451l0.53,0.53l-0.53,0.53l-0.53,0.53L24.224,48L38.268,33.958z" />
  </g>

  <!-- Text part of the logo (updated to white for dark theme) -->
  <g
    transform="matrix(2.75,0,0,2.75,108,18)"
    fill="#ffffff"
  >
    <!-- your path elements remain unchanged -->
    <path d="M10.56 5.52q1.22 0.46 2.2 1.48q2.1 2.12 2.1 5.41t-2.1 5.43q-0.98 1.02 -2.2 1.48q-1.26 0.52 -2.58 0.52h-5.66q-0.28 0 -0.49 -0.21t-0.21 -0.49v-1.44q0 -0.3 0.21 -0.51t0.49 -0.21h5.6q1.78 0 2.89 -1.3t1.11 -3.26 -1.11 -3.26 -2.89 -1.3h-5.6q-0.28 0 -0.49 -0.21t-0.21 -0.51v-1.44q0 -0.28 0.21 -0.49t0.49 -0.21h5.66q1.32 0 2.58 0.52zM27.86 16.96q0.3 0 0.5 0.21t0.2 0.51v1.46q0 0.28 -0.2 0.49t-0.5 0.21h-9.88q-0.28 0 -0.49 -0.21t-0.21 -0.49v-1.46q0 -0.3 0.21 -0.51t0.49 -0.21h9.88zM17.98 13.86q-0.28 0 -0.49 -0.21t-0.21 -0.49v-1.5q0 -0.28 0.21 -0.49t0.49 -0.21h8.98q0.3 0 0.51 0.21t0.21 0.49v1.5q0 0.28 -0.21 0.49t-0.51 0.21h-8.98zM27.86 5q0.3 0 0.5 0.21t0.2 0.49v1.46q0 0.3 -0.2 0.51t-0.5 0.21h-9.88q-0.28 0 -0.49 -0.21t-0.21 -0.51v-1.46q0 -0.28 0.21 -0.49t0.49 -0.21h9.88zM43.46 5.32q0.22 0.3 0.08 0.66l-5.48 13.54q-0.08 0.2 -0.26 0.32t-0.4 0.12h-1.76q-0.22 0 -0.4 -0.12t-0.26 -0.32l-5.48 -13.54q-0.16 -0.34 0.06 -0.66t0.58 -0.32h6.68q0.28 0 0.49 0.21t0.21 0.51v1.46q0 0.3 -0.21 0.51t-0.49 0.21h-3.36l3.06 7.7 4.02 -10.16q0.08 -0.2 0.26 -0.32t0.4 -0.12h1.68q0.18 0 0.34 0.09t0.24 0.23zM51.08 5.16q0.24 0.2 0.24 0.54v1.5q0 0.26 -0.15 0.45t-0.41 0.25q-1.28 0.26 -2.18 1.22 -1.22 1.28 -1.22 3.33t1.22 3.35q0.9 0.94 2.18 1.2 0.26 0.06 0.41 0.25t0.15 0.45v1.5q0 0.32 -0.24 0.54q-0.22 0.16 -0.46 0.16h-0.12q-2.32 -0.38 -3.98 -2.1 -2.08 -2.14 -2.08 -5.33t2.08 -5.37q1.62 -1.68 3.98 -2.08 0.32 -0.06 0.58 0.14zM57.36 7.1q2.08 2.18 2.08 5.37t-2.08 5.33q-1.66 1.72 -3.98 2.1h-0.12q-0.24 0 -0.46 -0.16 -0.24 -0.22 -0.24 -0.54v-1.5q0 -0.26 0.15 -0.45t0.41 -0.25q1.28 -0.26 2.18 -1.2 1.22 -1.3 1.22 -3.35t-1.22 -3.33q-0.9 -0.96 -2.18 -1.22 -0.26 -0.06 -0.41 -0.25t-0.15 -0.45v-1.5q0 -0.34 0.25 -0.54t0.57 -0.14q2.36 0.4 3.98 2.08zM74.32 5.32q0.22 0.3 0.08 0.66l-5.48 13.54q-0.08 0.2 -0.26 0.32t-0.4 0.12h-1.76q-0.22 0 -0.4 -0.12t-0.26 -0.32l-5.48 -13.54q-0.16 -0.34 0.06 -0.66t0.58 -0.32h6.68q0.28 0 0.49 0.21t0.21 0.51v1.46q0 0.3 -0.21 0.51t-0.49 0.21h-3.36l3.06 7.7 4.02 -10.16q0.08 -0.2 0.26 -0.32t0.4 -0.12h1.68q0.18 0 0.34 0.09t0.24 0.23zM78.36 10.94q0.3 0 0.5 0.21t0.2 0.51v7.48q0 0.28 -0.2 0.49t-0.5 0.21h-1.52q-0.28 0 -0.49 -0.21t-0.21 -0.49v-7.48q0 -0.3 0.21 -0.51t0.49 -0.21h1.52zM78.36 5q0.3 0 0.5 0.21t0.2 0.49v3.7q0 0.3 -0.2 0.51t-0.5 0.21h-1.52q-0.28 0 -0.49 -0.21t-0.21 -0.51v-3.7q0 -0.28 0.21 -0.49t0.49 -0.21h1.52zM95.46 18.86q0.14 0.32 -0.07 0.65t-0.57 0.33h-13.32q-0.18 0 -0.34 -0.09t-0.24 -0.23q-0.22 -0.32 -0.06 -0.66l0.62 -1.46q0.08 -0.2 0.26 -0.32t0.38 -0.12h9.32l-3.28 -7.84-2.68 6.4q-0.08 0.2 -0.25 0.31t-0.39 0.11h-1.68q-0.38 0 -0.6 -0.32q-0.08 -0.14 -0.1 -0.32t0.04 -0.34l4.06 -9.52q0.08 -0.2 0.25 -0.32t0.39 -0.12h1.92q0.22 0 0.39 0.12t0.25 0.32z" />
  </g>
</svg>
